HIERARCHY
ROOT hip
{
  OFFSET 0 0 0
  CHANNELS 6 Xposition Yposition Zposition Zrotation Yrotation Xrotation
  JOINT abdomen
  {
    OFFSET 0 20.6881 -0.73152
    CHANNELS 3 Zrotation Xrotation Yrotation
    JOINT chest
    {
      OFFSET 0 11.7043 -0.48768
      CHANNELS 3 Zrotation Xrotation Yrotation
      JOINT neck
      {
        OFFSET 0 22.1894 -2.19456
        CHANNELS 3 Zrotation Xrotation Yrotation
        JOINT head
        {
          OFFSET -0.24384 7.07133 1.2192
          CHANNELS 3 Zrotation Xrotation Yrotation
          JOINT leftEye
          {
            OFFSET 4.14528 8.04674 8.04672
            CHANNELS 3 Zrotation Xrotation Yrotation
            End Site
            {
              OFFSET 1 0 0
            }
          }
          JOINT rightEye
          {
            OFFSET -3.6576 8.04674 8.04672
            CHANNELS 3 Zrotation Xrotation Yrotation
            End Site
            {
              OFFSET 1 0 0
            }
          }
        }
      }
      JOINT rCollar
      {
        OFFSET -2.68224 19.2634 -4.8768
        CHANNELS 3 Zrotation Xrotation Yrotation
        JOINT rShldr
        {
          OFFSET -8.77824 -1.95073 1.46304
          CHANNELS 3 Zrotation Xrotation Yrotation
          JOINT rForeArm
          {
            OFFSET -28.1742 -1.7115 0.48768
            CHANNELS 3 Zrotation Xrotation Yrotation
            JOINT rHand
            {
              OFFSET -22.5879 0.773209 7.07136
              CHANNELS 3 Zrotation Xrotation Yrotation
              JOINT rThumb1
              {
                OFFSET -1.2192 -0.487915 3.41376
                CHANNELS 3 Zrotation Xrotation Yrotation
                JOINT rThumb2
                {
                  OFFSET -3.37035 -0.52449 3.41376
                  CHANNELS 3 Zrotation Xrotation Yrotation
                  End Site
                  {
                    OFFSET -1.78271 -1.18214 1.43049
                  }
                }
              }
              JOINT rIndex1
              {
                OFFSET -7.75947 0.938293 5.60832
                CHANNELS 3 Zrotation Xrotation Yrotation
                JOINT rIndex2
                {
                  OFFSET -2.54057 -0.884171 1.56538
                  CHANNELS 3 Zrotation Xrotation Yrotation
                  End Site
                  {
                    OFFSET -1.62519 -0.234802 1.16502
                  }
                }
              }
              JOINT rMid1
              {
                OFFSET -8.24714 1.18213 3.41376
                CHANNELS 3 Zrotation Xrotation Yrotation
                JOINT rMid2
                {
                  OFFSET -3.10165 -0.590103 1.0647
                  CHANNELS 3 Zrotation Xrotation Yrotation
                  End Site
                  {
                    OFFSET -2.48547 -0.328903 0.83742
                  }
                }
              }
              JOINT rRing1
              {
                OFFSET -8.82822 0.546677 1.51678
                CHANNELS 3 Zrotation Xrotation Yrotation
                JOINT rRing2
                {
                  OFFSET -2.60934 -0.819778 -0.0198488
                  CHANNELS 3 Zrotation Xrotation Yrotation
                  End Site
                  {
                    OFFSET -2.33842 -0.294052 0.168128
                  }
                }
              }
              JOINT rPinky1
              {
                OFFSET -8.27202 -0.0477905 -0.4584
                CHANNELS 3 Zrotation Xrotation Yrotation
                JOINT rPinky2
                {
                  OFFSET -1.82734 -0.647385 -0.700984
                  CHANNELS 3 Zrotation Xrotation Yrotation
                  End Site
                  {
                    OFFSET -1.69225 -0.51767 -0.607171
                  }
                }
              }
            }
          }
        }
      }
      JOINT lCollar
      {
        OFFSET 2.68224 19.2634 -4.8768
        CHANNELS 3 Zrotation Xrotation Yrotation
        JOINT lShldr
        {
          OFFSET 8.77824 -1.95073 1.46304
          CHANNELS 3 Zrotation Xrotation Yrotation
          JOINT lForeArm
          {
            OFFSET 28.1742 -1.7115 0.48768
            CHANNELS 3 Zrotation Xrotation Yrotation
            JOINT lHand
            {
              OFFSET 22.5879 0.773209 7.07136
              CHANNELS 3 Zrotation Xrotation Yrotation
              JOINT lThumb1
              {
                OFFSET 1.2192 -0.487915 3.41376
                CHANNELS 3 Zrotation Xrotation Yrotation
                JOINT lThumb2
                {
                  OFFSET 3.37035 -0.52449 3.41376
                  CHANNELS 3 Zrotation Xrotation Yrotation
                  End Site
                  {
                    OFFSET 1.78271 -1.18214 1.43049
                  }
                }
              }
              JOINT lIndex1
              {
                OFFSET 7.75947 0.938293 5.60832
                CHANNELS 3 Zrotation Xrotation Yrotation
                JOINT lIndex2
                {
                  OFFSET 2.54057 -0.884171 1.56538
                  CHANNELS 3 Zrotation Xrotation Yrotation
                  End Site
                  {
                    OFFSET 1.62519 -0.234802 1.16502
                  }
                }
              }
              JOINT lMid1
              {
                OFFSET 8.24714 1.18213 3.41376
                CHANNELS 3 Zrotation Xrotation Yrotation
                JOINT lMid2
                {
                  OFFSET 3.10165 -0.590103 1.0647
                  CHANNELS 3 Zrotation Xrotation Yrotation
                  End Site
                  {
                    OFFSET 2.48547 -0.328903 0.83742
                  }
                }
              }
              JOINT lRing1
              {
                OFFSET 8.82822 0.546677 1.51678
                CHANNELS 3 Zrotation Xrotation Yrotation
                JOINT lRing2
                {
                  OFFSET 2.60934 -0.819778 -0.0198488
                  CHANNELS 3 Zrotation Xrotation Yrotation
                  End Site
                  {
                    OFFSET 2.33842 -0.294052 0.168128
                  }
                }
              }
              JOINT lPinky1
              {
                OFFSET 8.27202 -0.0477905 -0.4584
                CHANNELS 3 Zrotation Xrotation Yrotation
                JOINT lPinky2
                {
                  OFFSET 1.82734 -0.647385 -0.700984
                  CHANNELS 3 Zrotation Xrotation Yrotation
                  End Site
                  {
                    OFFSET 1.69225 -0.51767 -0.607171
                  }
                }
              }
            }
          }
        }
      }
    }
  }
  JOINT rButtock
  {
    OFFSET -8.77824 4.35084 1.2192
    CHANNELS 3 Zrotation Xrotation Yrotation
    JOINT rThigh
    {
      OFFSET 0 -1.70687 -2.19456
      CHANNELS 3 Zrotation Xrotation Yrotation
      JOINT rShin
      {
        OFFSET 0 -36.8199 0.73152
        CHANNELS 3 Zrotation Xrotation Yrotation
        JOINT rFoot
        {
          OFFSET 0.73152 -45.1104 -5.12064
          CHANNELS 3 Zrotation Xrotation Yrotation
          End Site
          {
            OFFSET -1.1221 -3.69964 12.103
          }
        }
      }
    }
  }
  JOINT lButtock
  {
    OFFSET 8.77824 4.35084 1.2192
    CHANNELS 3 Zrotation Xrotation Yrotation
    JOINT lThigh
    {
      OFFSET 0 -1.70687 -2.19456
      CHANNELS 3 Zrotation Xrotation Yrotation
      JOINT lShin
      {
        OFFSET 0 -36.8199 0.73152
        CHANNELS 3 Zrotation Xrotation Yrotation
        JOINT lFoot
        {
          OFFSET -0.73152 -45.1104 -5.12064
          CHANNELS 3 Zrotation Xrotation Yrotation
          End Site
          {
            OFFSET 1.1221 -3.69964 12.103
          }
        }
      }
    }
  }
}
MOTION
Frames:	5
Frame Time:	0.03333
17.197100000000002 68.5993 21.979599999999998 8.158451 -76.414595 -1.815416 -4.139275 -2.795894 -100.804109 15.809555 -5.207318 101.513799 -12.58202 18.685278 -92.413577 40.246081 -2.258324 52.699446 -0.002321 -0.0 0.00216 -0.002321 -0.0 0.00216 -33.841026 -85.665574 -55.257989 88.76134 -75.246348 90.401179 163.051 12.823213 -59.511268 -21.204077 48.063185 7.678891 -170.592728 -8.278097 89.949594 -110.478762 13.224424 49.266432 -100.823896 37.734232 85.162378 12.369488 -10.96457 -6.865257 -153.320728 13.629357 138.86358 -13.564669 36.303153 11.072962 -145.109069 -0.925305 -178.837056 11.999787 29.598423 -5.640671 -1.179419 -2.984974 -1.092861 -158.618 52.862874 -149.967142 159.220066 -48.028439 -170.415614 100.67772 39.393186 -108.341843 83.740951 48.020771 -79.43105 -21.031638 -44.25073 -11.910614 160.051554 2.213117 -88.878171 170.661795 -11.652932 -84.720699 46.207315 39.65383 -36.317835 82.063068 50.253509 -60.094904 167.375546 -28.008534 -145.26863 -3.085591 0.167345 -0.369828 -0.000289 -0.018333 0.007141 -11.110764 -13.792152 1.712658 26.566127 -38.859806 25.607441 80.084643 -54.169214 80.424124 -0.0 -0.000291 -0.001029 -39.797443 -47.474403 -48.503201 -11.314891 58.268392 -80.29014 -135.265223 -70.609108 -41.700373 0.001518 -0.001332 0.000759 12.593662 -26.633614 -87.518942 -61.830926 -27.815337 -56.903507 -138.366659 6.792757 -165.585335
17.3104 67.8829 22.0781 6.702493 -75.467939 -0.3424 -5.60586 -4.900995 180.0 6.266034 12.133295 178.904405 -10.100665 22.486493 -119.302219 40.833002 13.255496 75.444683 -0.001126 0.0 -0.001426 -0.001126 0.0 -0.001426 -142.973634 39.431692 147.390248 -142.576577 11.481192 162.685148 -116.634533 -50.255077 81.437034 137.115096 -61.716677 118.816276 -4.166772 4.057391 0.783049 -128.006909 -24.929616 112.474148 -138.764317 4.487192 115.030768 -0.214244 17.059316 -5.534343 -152.827097 14.793332 138.514664 -141.148277 40.934857 128.769479 -0.022034 -1.725982 -0.542884 11.581874 -23.571439 -2.84036 -1.151328 -2.914169 -1.065173 -22.704676 -40.189295 -23.495047 -3.737767 -33.150931 6.412482 -174.912635 63.074459 -162.499666 -137.848178 1.892923 -167.815484 154.652907 61.860844 -131.634578 161.434401 0.861208 -89.126304 -144.051137 -43.491705 -91.042804 152.31451 -18.947943 -121.430783 162.950199 -19.434042 -119.566376 -0.290516 -0.849546 0.160651 0.795686 11.299075 -1.881231 -0.00517 1.770529 -0.555662 -6.768927 29.707101 -4.674667 134.694964 -14.10488 132.113275 25.185806 -40.38401 26.971771 -179.957164 75.748635 -0.033015 150.645425 18.973387 9.767113 31.467454 65.42739 -134.269557 -175.655774 -61.577888 -78.938864 0.001083 0.001004 0.000541 10.992739 -27.633795 86.29637 48.938474 29.777644 -113.042966 67.504623 34.042494 25.356758
17.2686 67.4433 22.0716 6.694001 -74.106376 -0.237213 -2.9071 -3.136316 -98.704797 14.830253 -6.133127 98.716534 1.199497 25.067832 175.475232 19.087768 43.095175 139.131205 0.000671 -0.0 -0.001301 -0.003816 -0.0 0.002232 -157.759898 -21.736598 165.397955 -152.634406 18.338401 146.671403 97.07282 33.43139 80.13107 -165.965157 49.032567 140.082207 -0.440908 0.435652 0.068178 -124.323825 -16.939096 111.26364 0.185237 -0.30035 -0.103525 -177.794976 -34.360495 106.358972 -160.098919 -4.900789 142.969786 -34.791043 54.91622 29.485461 -71.541818 -72.139101 -88.497057 14.724317 -0.025574 -4.558051 -141.577622 1.570717 -138.571797 17.110328 43.759755 6.071279 149.905321 22.421735 -154.975193 -37.454234 18.774537 -15.988003 92.649671 -49.18492 110.549215 -25.605895 -49.824461 -15.557881 -51.060149 -41.203931 -12.856245 146.266396 -18.511328 -124.262801 26.597945 30.074123 -19.413604 169.085322 -19.446972 -110.646663 160.673744 -6.667994 -143.24427 -167.272691 -63.975219 -132.396239 72.134623 72.973485 -89.990316 156.162433 -46.613125 175.9555 -3.540363 10.041862 -3.218277 159.2466 53.983383 149.99013 -0.003214 0.000978 -0.001607 -37.76819 -43.74379 -48.253801 18.62953 65.329999 64.922143 -40.131606 -34.838627 -116.8528 0.003269 -0.000397 0.001635 12.348164 -27.514099 -0.0 -33.015455 47.345964 60.099595 61.346292 -23.524263 0.683682
17.2088 67.6485 21.962200000000003 9.442319 -72.970483 -2.629622 -8.194952 -4.110562 116.461573 -9.55032 8.408997 -117.875716 8.287328 11.490439 78.119034 -33.748021 16.95366 -106.503485 0.002931 -0.0 -0.002281 0.002931 -0.0 -0.002281 -150.120618 21.701445 155.220345 -2.756373 43.257875 36.677617 79.42764 -31.002579 -85.85334 -176.971967 29.055608 146.556974 -78.03004 38.68888 42.41327 -140.024861 -27.618995 82.856633 -179.420101 -58.426694 117.044972 -178.432883 -47.755599 111.372288 -8.416405 20.880274 5.646382 -85.878131 64.234581 77.806938 -145.119579 0.239572 -179.205384 -154.176441 -12.52467 -177.50682 25.911218 79.094431 10.836558 -148.843038 12.894823 -143.049341 -3.749972 -33.331075 6.445921 25.099434 13.435901 -4.012385 -175.924531 -9.095816 -117.440325 -168.217758 -18.847489 -143.902149 164.698582 -2.371889 -89.585245 127.013874 8.963486 -60.853736 145.520686 -6.585338 -118.766525 62.896775 57.129827 -45.741403 8.305107 20.652728 -5.560687 -7.322242 -12.299614 1.209778 0.007818 -0.831557 0.259957 78.222679 78.782478 -91.705083 143.93948 8.265445 140.718801 137.694028 -12.298148 134.056413 0.0 -0.000137 0.000138 -35.402615 -43.829839 -180.0 -54.244662 -45.478473 41.20575 147.736736 7.039304 -39.178073 0.000299 0.000868 -0.000384 9.841236 -28.640375 78.931696 62.333728 32.9722 78.89465 -134.375216 -29.010065 160.991817
17.1183 67.8049 21.6545 11.248401 -72.671992 -4.053447 -6.285096 -0.691335 -0.339057 -4.945538 -15.079576 -2.048543 -11.279673 13.05538 -65.108412 25.91884 -15.832966 35.286425 -0.001341 -0.0 0.000797 -0.002684 0.0 -0.000267 2.460539 -18.216329 -3.668775 25.074942 82.142438 -25.857056 141.95739 70.060695 99.891759 166.061753 -19.773572 144.29917 -176.598397 -14.213146 89.690575 -133.967065 13.446574 67.572255 0.185352 -0.300253 -0.103945 -177.798737 -34.359321 106.358609 -10.976045 25.790051 7.639006 -171.99531 -31.360747 144.078835 -132.480962 54.10275 155.533102 -154.728517 -39.62097 -174.545675 -165.508178 77.444441 -149.667526 -149.108233 13.695966 -142.804745 40.764105 63.150169 -43.382524 -136.788439 71.489373 110.227456 -172.810107 10.905556 154.254061 13.562914 41.906091 -4.027776 162.890853 -0.57594 -89.353637 -8.227463 -53.137228 -16.157844 95.099887 39.750632 -80.124381 82.316361 53.282505 -59.749509 169.091239 -33.247295 -145.373938 7.576678 26.101801 -6.417973 0.021701 -1.725223 0.542025 -11.250966 -13.787377 1.718773 1.176818 -2.985327 1.093522 137.755765 -13.852023 135.52126 179.997145 75.747912 0.001461 151.124152 23.015735 140.122813 40.967191 -49.662635 -95.696557 36.570186 -58.964726 -43.856465 -0.00328 -3e-05 -0.00164 11.535696 -29.161299 -101.531758 -50.596007 -40.601621 22.812789 163.043053 -34.541169 -125.350339
